<?xml version="1.0" standalone="no"?>
<!DOCTYPE svg PUBLIC "-//W3C//DTD SVG 20010904//EN"
 "http://www.w3.org/TR/2001/REC-SVG-20010904/DTD/svg10.dtd">
<svg version="1.0" xmlns="http://www.w3.org/2000/svg"
 width="344.000000pt" height="147.000000pt" viewBox="0 0 344.000000 147.000000"
 preserveAspectRatio="xMidYMid meet">

<g transform="translate(0.000000,147.000000) scale(0.100000,-0.100000)"
fill="#000000" stroke="none">
<path d="M282 1444 c-98 -26 -152 -66 -188 -140 -22 -45 -26 -64 -22 -118 7
-116 76 -184 238 -232 244 -74 270 -89 270 -154 0 -127 -228 -134 -423 -14
-32 20 -60 34 -61 33 -2 -2 -22 -35 -45 -74 l-41 -70 22 -19 c35 -29 156 -83
223 -101 34 -9 102 -15 161 -15 180 0 295 54 350 165 23 49 26 64 21 122 -10
123 -82 186 -287 249 -151 46 -165 52 -195 80 -35 32 -35 85 1 113 65 51 215
34 389 -45 8 -3 85 133 85 150 0 10 -129 59 -187 71 -86 18 -242 18 -311 -1z"/>
<path d="M880 999 l0 -451 263 4 c210 3 270 7 304 20 144 56 208 168 170 299
-17 56 -53 100 -115 137 l-32 19 39 26 c94 62 108 219 28 305 -32 35 -104 69
-172 81 -32 6 -155 11 -272 11 l-213 0 0 -451z m470 269 c63 -43 61 -119 -4
-159 -26 -16 -51 -19 -153 -19 l-123 0 0 100 0 100 124 0 c111 0 126 -2 156
-22z m-9 -348 c113 -32 120 -164 11 -201 -21 -8 -87 -13 -157 -14 l-120 0 -3
113 -3 112 118 0 c65 0 134 -5 154 -10z"/>
<path d="M1710 1000 l0 -450 100 0 100 0 0 450 0 450 -100 0 -100 0 0 -450z"/>
<path d="M2112 1148 l3 -303 83 -3 82 -3 0 167 c0 151 2 170 21 204 27 48 84
80 155 87 55 6 56 6 109 77 l54 71 -102 3 c-93 2 -161 -8 -219 -33 -14 -5 -18
-2 -18 14 0 20 -5 21 -85 21 l-85 0 2 -302z"/>
<path d="M2626 1375 l-56 -75 130 0 c71 0 130 -4 130 -8 0 -5 -29 -48 -65 -95
l-65 -87 41 -66 c31 -49 46 -64 58 -59 67 27 150 9 198 -41 104 -111 -1 -274
-161 -250 -57 9 -122 66 -132 114 l-6 32 -84 0 c-97 0 -98 -1 -64 -93 29 -76
79 -130 158 -169 61 -30 74 -33 162 -33 82 0 103 4 151 26 119 56 184 154 183
274 -1 84 -25 142 -86 203 -42 43 -128 92 -160 92 -10 0 -18 4 -18 8 0 5 25
42 55 82 55 73 55 74 55 147 l0 73 -184 0 -184 0 -56 -75z"/>
<path d="M3290 970 c-11 -11 -20 -33 -20 -50 0 -69 96 -98 140 -43 25 32 21
77 -8 99 -27 21 -89 17 -112 -6z"/>
<path d="M1000 355 c0 -23 4 -25 45 -25 l45 0 0 -85 c0 -82 -1 -86 -25 -97
-20 -9 -32 -8 -59 5 -32 15 -35 15 -52 -4 -20 -22 -20 -21 23 -43 52 -26 109
-21 144 13 29 29 29 31 29 145 l0 116 -75 0 c-73 0 -75 -1 -75 -25z"/>
<path d="M1268 321 c-44 -15 -49 -20 -38 -42 9 -16 15 -17 31 -9 11 6 39 10
62 8 35 -2 43 -7 45 -25 3 -22 0 -23 -56 -23 -73 0 -105 -21 -105 -69 0 -18 7
-39 15 -48 21 -21 99 -29 129 -13 17 10 24 10 27 1 2 -6 15 -11 28 -11 24 0
24 1 24 93 0 86 -2 95 -24 116 -27 26 -93 36 -138 22z m102 -145 c0 -19 -39
-46 -66 -46 -26 0 -48 24 -40 45 8 21 106 22 106 1z"/>
<path d="M1507 323 c-4 -3 -7 -75 -7 -160 l0 -153 30 0 c30 0 30 1 30 54 l0
55 28 -15 c68 -35 153 -3 172 66 28 104 -69 192 -161 146 -39 -20 -39 -20 -39
-1 0 15 -40 21 -53 8z m182 -69 c35 -45 22 -93 -30 -113 -30 -11 -83 8 -93 34
-21 55 11 105 68 105 25 0 40 -7 55 -26z"/>
<path d="M1863 316 c-35 -16 -40 -27 -20 -44 8 -7 18 -7 27 -2 21 14 84 12 98
-2 27 -27 13 -38 -48 -38 -51 0 -65 -4 -85 -25 -14 -13 -25 -33 -25 -45 0 -36
44 -70 90 -70 23 0 50 5 61 10 13 7 19 7 19 0 0 -5 14 -10 30 -10 l30 0 0 89
c0 79 -3 93 -23 117 -29 33 -104 43 -154 20z m117 -140 c0 -19 -39 -46 -66
-46 -26 0 -48 24 -40 45 8 21 106 22 106 1z"/>
<path d="M2110 210 l0 -120 30 0 30 0 0 74 c0 69 2 76 26 95 33 26 58 27 84 1
16 -16 20 -33 20 -95 0 -73 1 -75 25 -75 25 0 25 1 25 89 0 105 -3 117 -41
136 -36 19 -66 19 -103 0 -35 -18 -36 -18 -36 0 0 10 -10 15 -30 15 l-30 0 0
-120z"/>
</g>
</svg>
